<?xml version="1.0" encoding="UTF-8" standalone="no"?>
<!-- Created with Inkscape (http://www.inkscape.org/) -->

<svg
   width="64pt"
   height="64pt"
   viewBox="0 0 22.577778 22.577778"
   version="1.1"
   id="svg831"
   inkscape:version="1.1.2 (0a00cf5339, 2022-02-04)"
   sodipodi:docname="01 - House Building.svg"
   inkscape:export-filename="/media/taufikramadhan/Data/Tr Design Studio/Project Design/TR Creative Design/Icon Design/Project Hiring/Icon Icons/024 - Real Estate And Building/Team/Asli Siap/Filedline/01 - House Building.png"
   inkscape:export-xdpi="576"
   inkscape:export-ydpi="576"
   xmlns:inkscape="http://www.inkscape.org/namespaces/inkscape"
   xmlns:sodipodi="http://sodipodi.sourceforge.net/DTD/sodipodi-0.dtd"
   xmlns="http://www.w3.org/2000/svg"
   xmlns:svg="http://www.w3.org/2000/svg"
   xmlns:rdf="http://www.w3.org/1999/02/22-rdf-syntax-ns#"
   xmlns:cc="http://creativecommons.org/ns#"
   xmlns:dc="http://purl.org/dc/elements/1.1/">
  <defs
     id="defs825">
    <pattern
       id="EMFhbasepattern"
       patternUnits="userSpaceOnUse"
       width="6"
       height="6"
       x="0"
       y="0" />
    <pattern
       id="EMFhbasepattern-9"
       patternUnits="userSpaceOnUse"
       width="6"
       height="6"
       x="0"
       y="0" />
    <pattern
       id="EMFhbasepattern-0"
       patternUnits="userSpaceOnUse"
       width="6"
       height="6"
       x="0"
       y="0" />
    <pattern
       id="EMFhbasepattern-7"
       patternUnits="userSpaceOnUse"
       width="6"
       height="6"
       x="0"
       y="0" />
    <pattern
       id="EMFhbasepattern-2"
       patternUnits="userSpaceOnUse"
       width="6"
       height="6"
       x="0"
       y="0" />
    <pattern
       id="EMFhbasepattern-98"
       patternUnits="userSpaceOnUse"
       width="6"
       height="6"
       x="0"
       y="0" />
    <pattern
       id="EMFhbasepattern-6"
       patternUnits="userSpaceOnUse"
       width="6"
       height="6"
       x="0"
       y="0" />
    <pattern
       id="EMFhbasepattern-01"
       patternUnits="userSpaceOnUse"
       width="6"
       height="6"
       x="0"
       y="0" />
    <pattern
       id="EMFhbasepattern-07"
       patternUnits="userSpaceOnUse"
       width="6"
       height="6"
       x="0"
       y="0" />
    <pattern
       id="EMFhbasepattern-8"
       patternUnits="userSpaceOnUse"
       width="6"
       height="6"
       x="0"
       y="0" />
    <pattern
       id="EMFhbasepattern-4"
       patternUnits="userSpaceOnUse"
       width="6"
       height="6"
       x="0"
       y="0" />
    <pattern
       id="EMFhbasepattern-40"
       patternUnits="userSpaceOnUse"
       width="6"
       height="6"
       x="0"
       y="0" />
    <pattern
       id="EMFhbasepattern-08"
       patternUnits="userSpaceOnUse"
       width="6"
       height="6"
       x="0"
       y="0" />
    <pattern
       id="EMFhbasepattern-04"
       patternUnits="userSpaceOnUse"
       width="6"
       height="6"
       x="0"
       y="0" />
    <pattern
       id="EMFhbasepattern-014"
       patternUnits="userSpaceOnUse"
       width="6"
       height="6"
       x="0"
       y="0" />
    <pattern
       id="EMFhbasepattern-27"
       patternUnits="userSpaceOnUse"
       width="6"
       height="6"
       x="0"
       y="0" />
    <pattern
       id="EMFhbasepattern-09"
       patternUnits="userSpaceOnUse"
       width="6"
       height="6"
       x="0"
       y="0" />
    <pattern
       id="EMFhbasepattern-5"
       patternUnits="userSpaceOnUse"
       width="6"
       height="6"
       x="0"
       y="0" />
    <pattern
       id="EMFhbasepattern-018"
       patternUnits="userSpaceOnUse"
       width="6"
       height="6"
       x="0"
       y="0" />
    <pattern
       id="EMFhbasepattern-3"
       patternUnits="userSpaceOnUse"
       width="6"
       height="6"
       x="0"
       y="0" />
  </defs>
  <sodipodi:namedview
     id="base"
     pagecolor="#ffffff"
     bordercolor="#666666"
     borderopacity="1.0"
     inkscape:pageopacity="0.0"
     inkscape:pageshadow="2"
     inkscape:zoom="3.7537427"
     inkscape:cx="20.512861"
     inkscape:cy="86.713456"
     inkscape:document-units="pt"
     inkscape:current-layer="layer1"
     showgrid="false"
     units="pt"
     inkscape:window-width="1366"
     inkscape:window-height="719"
     inkscape:window-x="0"
     inkscape:window-y="26"
     inkscape:window-maximized="1"
     inkscape:pagecheckerboard="true"
     inkscape:showpageshadow="false"
     inkscape:object-paths="true"
     inkscape:snap-intersection-paths="true"
     inkscape:snap-smooth-nodes="true"
     inkscape:snap-midpoints="true"
     showguides="true"
     inkscape:snap-bbox="true"
     inkscape:bbox-nodes="true"
     inkscape:snap-nodes="false"
     inkscape:snap-global="false"
     inkscape:snap-others="false">
    <inkscape:grid
       type="xygrid"
       id="grid1378" />
    <sodipodi:guide
       position="0.97013831,21.607643"
       orientation="78.000048,0"
       id="guide1380"
       inkscape:locked="false" />
    <sodipodi:guide
       position="0.97013831,0.97013129"
       orientation="0,78.000005"
       id="guide1382"
       inkscape:locked="false" />
    <sodipodi:guide
       position="21.607639,0.97013129"
       orientation="-78.000048,0"
       id="guide1384"
       inkscape:locked="false" />
    <sodipodi:guide
       position="21.607639,21.607643"
       orientation="0,-78.000005"
       id="guide1386"
       inkscape:locked="false" />
  </sodipodi:namedview>
  <metadata
     id="metadata828">
    <rdf:RDF>
      <cc:Work
         rdf:about="">
        <dc:format>image/svg+xml</dc:format>
        <dc:type
           rdf:resource="http://purl.org/dc/dcmitype/StillImage" />
      </cc:Work>
    </rdf:RDF>
  </metadata>
  <g
     inkscape:label="Icon"
     inkscape:groupmode="layer"
     id="layer1"
     transform="translate(0,-274.42223)">
    <g
       id="g98552"
       style="display:inline;stroke-width:0.810299"
       transform="matrix(1.2341128,0,0,1.2341128,76.127978,312.90636)">
      <g
         id="g98534"
         style="stroke-width:0.810299">
        <path
           style="color:#000000;fill:#e2f0fa;stroke-width:0.810299;stroke-linecap:round;stroke-linejoin:round;-inkscape-stroke:none"
           d="m -47.279776,-25.922989 v -3.183594 h -2.611328 v 1.980469 z"
           id="path3152"
           sodipodi:nodetypes="ccccc" />
        <path
           style="color:#000000;fill:#e2f0fa;stroke-width:0.810299;stroke-linecap:round;stroke-linejoin:round;-inkscape-stroke:none"
           d="m -52.36962,-28.329239 -6.917969,3.992187 a 0.26460996,0.26460996 0 0 0 -0.132812,0.230472 v 9.84961 a 0.26460996,0.26460996 0 0 0 0.263672,0.26562 h 13.234375 a 0.26460996,0.26460996 0 0 0 0.265625,-0.26562 v -9.84961 a 0.26460996,0.26460996 0 0 0 -0.123047,-0.224613 l -6.316406,-3.99414 a 0.26460996,0.26460996 0 0 0 -0.273438,-0.0039 z"
           id="path3524" />
        <path
           style="color:#000000;fill:#dc1c4b;stroke-width:0.810299;stroke-linecap:round;stroke-linejoin:round;-inkscape-stroke:none"
           d="m -52.904776,-29.253068 -7.392578,4.269532 c -0.297168,0.171568 -0.402036,0.558303 -0.230469,0.855466 l 0.300781,0.51953 c 0.17157,0.29716 0.558304,0.40009 0.855469,0.22852 l 6.832031,-3.94336 6.832031,3.94336 c 0.297152,0.17156 0.685857,0.0687 0.857422,-0.22852 l 0.298828,-0.51953 c 0.171568,-0.297166 0.06865,-0.683897 -0.228515,-0.855466 l -7.394531,-4.269532 c -0.22564,-0.130232 -0.50483,-0.130233 -0.730469,0 z"
           id="path3518" />
        <path
           style="color:#000000;fill:#143441;fill-opacity:1;stroke-width:0.810299;stroke-linecap:round;stroke-linejoin:round;-inkscape-stroke:none"
           d="m -55.978995,-14.25697 v -1.85157 c 5.62e-4,-0.14693 -0.118693,-0.26618 -0.265625,-0.26562 h -3.705078 c -0.146932,-5.6e-4 -0.266187,0.11869 -0.265625,0.26562 v 1.85157 z"
           id="path12369"
           sodipodi:nodetypes="ccccccc" />
        <path
           style="color:#000000;fill:#70c2ef;stroke-width:0.810299;stroke-linecap:round;stroke-linejoin:round;-inkscape-stroke:none"
           d="m -58.162589,-22.19447 a 0.26460996,0.26460996 0 0 0 -0.265625,0.26562 v 2.91016 a 0.26460996,0.26460996 0 0 0 0.265625,0.26367 h 2.777344 a 0.26460996,0.26460996 0 0 0 0.265625,-0.26367 v -2.91016 a 0.26460996,0.26460996 0 0 0 -0.265625,-0.26562 z"
           id="path5325" />
        <path
           id="path5320"
           style="color:#000000;fill:#e2f0fa;stroke-width:0.810299;stroke-linecap:round;stroke-linejoin:round;-inkscape-stroke:none"
           d="m -57.037574,-22.194295 v 1.45469 h -1.390613 v 0.529685 h 1.390613 v 1.45469 h 0.529167 v -1.45469 h 1.388544 v -0.529685 h -1.388544 v -1.45469 z" />
        <path
           style="color:#000000;fill:#3a4d5c;stroke-width:0.810299;stroke-linecap:round;stroke-linejoin:round;-inkscape-stroke:none"
           d="m -53.859854,-22.19057 c -0.290945,0 -0.53125,0.24032 -0.53125,0.53125 v 6.34375 a 0.26460996,0.26460996 0 0 0 0.263672,0.26563 h 3.175781 a 0.26460996,0.26460996 0 0 0 0.265625,-0.26563 v -6.34375 c 0,-0.29093 -0.242259,-0.53125 -0.533203,-0.53125 z"
           id="path8923" />
        <path
           style="color:#000000;fill:#a3b9c9;stroke-width:0.810299;stroke-linecap:round;stroke-linejoin:round;-inkscape-stroke:none"
           d="m -54.129386,-15.57924 c -0.434132,0 -0.791015,0.35689 -0.791015,0.79102 v 0.53125 a 0.26460996,0.26460996 0 0 0 0.263672,0.26562 h 4.234375 a 0.26460996,0.26460996 0 0 0 0.265625,-0.26562 v -0.53125 c 0,-0.43413 -0.358836,-0.79102 -0.792969,-0.79102 z"
           id="path9119" />
        <path
           style="color:#000000;fill:#dc1c4b;stroke-width:0.810299;stroke-linecap:round;stroke-linejoin:round;-inkscape-stroke:none"
           d="m -49.627432,-30.081193 c -0.289366,10e-7 -0.529297,0.239928 -0.529297,0.529297 v 0.478516 c 0,0.28937 0.239931,0.529297 0.529297,0.529297 h 2.117187 c 0.289366,0 0.529297,-0.239927 0.529297,-0.529297 v -0.478516 c 0,-0.289369 -0.239931,-0.529296 -0.529297,-0.529297 z"
           id="path3158" />
        <path
           style="color:#000000;fill:#70c2ef;stroke-width:0.810299;stroke-linecap:round;stroke-linejoin:round;-inkscape-stroke:none"
           d="m -49.697745,-22.19447 a 0.26460996,0.26460996 0 0 0 -0.265625,0.26562 v 2.91016 a 0.26460996,0.26460996 0 0 0 0.265625,0.26367 h 2.777344 a 0.26460996,0.26460996 0 0 0 0.265625,-0.26367 v -2.91016 a 0.26460996,0.26460996 0 0 0 -0.265625,-0.26562 z"
           id="path5645" />
        <path
           style="color:#000000;display:inline;fill:#9ccc65;fill-opacity:1;stroke-width:0.810299;stroke-linecap:round;stroke-linejoin:round;-inkscape-stroke:none"
           d="m -56.244612,-15.31578 c 0.54647,0 0.91137,-0.41868 0.94723,-0.84801 0.0314,-0.37532 -0.16375,-0.78292 -0.55139,-0.97306 -0.07,-0.39038 -0.35616,-0.67656 -0.68316,-0.79014 v -5.3e-4 c -0.2892,-0.10044 -0.61684,-0.0902 -0.90227,0.0434 -0.17855,-0.1927 -0.4289,-0.294 -0.68162,-0.293 -0.24619,0.005 -0.406373,0.303449 -0.6599,0.33303 -0.310731,0.03626 -0.6068,-0.18432 -0.89297,-0.08494 -0.32584,0.11309 -0.60783,0.40116 -0.67696,0.7922 -0.38769,0.19007 -0.58269,0.59769 -0.55139,0.97306 0.0358,0.42938 0.4007,0.84801 0.94723,0.84801 z"
           id="path13795"
           sodipodi:nodetypes="cccccccsccccc" />
        <path
           style="color:#000000;fill:#143441;fill-opacity:1;stroke-width:0.810299;stroke-linecap:round;stroke-linejoin:round;-inkscape-stroke:none"
           d="m -44.863761,-14.25697 v -1.85157 c 5.59e-4,-0.14617 -0.117503,-0.2651 -0.263671,-0.26562 h -3.707032 c -0.146169,5.2e-4 -0.264231,0.11945 -0.263672,0.26562 v 1.85157 z"
           id="path12375"
           sodipodi:nodetypes="ccccccc" />
        <path
           style="color:#000000;display:inline;fill:#9ccc65;fill-opacity:1;stroke-width:0.810299;stroke-linecap:round;stroke-linejoin:round;-inkscape-stroke:none"
           d="m -45.128265,-15.31578 c 0.54647,0 0.91137,-0.41868 0.94723,-0.84801 0.0314,-0.37532 -0.16375,-0.78292 -0.55139,-0.97306 -0.07,-0.39038 -0.35616,-0.67656 -0.68316,-0.79014 v -5.3e-4 c -0.2892,-0.10044 -0.61684,-0.0902 -0.90227,0.0434 -0.17855,-0.1927 -0.4289,-0.294 -0.68162,-0.293 -0.24619,0.005 -0.48746,0.1074 -0.6599,0.29559 -0.28214,-0.13515 -0.6068,-0.14688 -0.89297,-0.0475 -0.32584,0.11309 -0.60783,0.40116 -0.67696,0.7922 -0.38769,0.19007 -0.58269,0.59769 -0.55139,0.97306 0.0358,0.42938 0.4007,0.84801 0.94723,0.84801 z"
           id="path127889" />
        <path
           style="color:#000000;fill:#70c2ef;fill-opacity:1;stroke-width:0.810299;stroke-linecap:round;stroke-linejoin:round;-inkscape-stroke:none"
           d="m -52.539542,-24.839005 c 0.441713,0 0.794922,0.353202 0.794922,0.794925 0,0.4417 -0.353212,0.79492 -0.794922,0.79492 -0.441711,0 -0.792969,-0.35322 -0.792969,-0.79492 0,-0.441723 0.351255,-0.794925 0.792969,-0.794925 z"
           id="path4084" />
        <path
           id="path21754"
           style="color:#000000;display:inline;fill:#000000;stroke-width:0.810299;stroke-linecap:round;stroke-linejoin:round;-inkscape-stroke:none"
           d="m -46.326889,-17.879013 c -0.175773,-0.188975 -0.416671,-0.295895 -0.657323,-0.296622 -0.243941,-7.41e-4 -0.488725,0.107713 -0.665594,0.299723 -0.284633,-0.138994 -0.613749,-0.152001 -0.902787,-0.05168 -0.327697,0.113741 -0.611445,0.404455 -0.678511,0.798917 -0.335878,0.171914 -0.536289,0.504971 -0.551905,0.835608 -0.01122,0.237401 0.06021,0.479598 0.224277,0.668176 0.113731,0.130725 0.273454,0.229237 0.460951,0.277503 v 0.825789 h -1.058333 v -0.265617 c 0,-0.342009 -0.222898,-0.636811 -0.529683,-0.746724 v -6.124174 c 0,-0.290937 -0.241839,-0.533301 -0.532783,-0.533301 h -2.640666 c -0.290944,0 -0.5333,0.242364 -0.5333,0.533301 v 6.124174 c -0.306549,0.110043 -0.529166,0.404885 -0.529166,0.746724 v 0.265617 h -1.058852 v -0.825789 c 0.187499,-0.04827 0.34722,-0.146778 0.460954,-0.277503 0.164068,-0.188578 0.236006,-0.430775 0.224793,-0.668176 -0.01561,-0.330579 -0.216136,-0.663668 -0.551905,-0.835608 -0.06706,-0.394471 -0.350809,-0.685174 -0.678511,-0.798917 -0.289004,-0.100313 -0.618178,-0.08727 -0.902787,0.05168 -0.176872,-0.192044 -0.42163,-0.30046 -0.665594,-0.299723 -0.240911,7.41e-4 -0.48201,0.107784 -0.657323,0.297139 -0.04559,-0.02179 -0.09204,-0.04083 -0.139525,-0.05633 v -5.721615 l 6.351548,-3.667994 6.35155,3.667994 v 4.900476 c -5.29e-4,0.14694 0.118679,0.266197 0.265618,0.265617 0.146177,-5.03e-4 0.264126,-0.119441 0.263549,-0.265617 v -4.598169 c 0.289626,0.134544 0.646419,0.02795 0.808736,-0.253214 l 0.298691,-0.519865 c 0.171569,-0.297168 0.06668,-0.683676 -0.230476,-0.855245 l -2.49804,-1.442806 v -2.171443 c 0.176056,-0.08658 0.298691,-0.268254 0.298691,-0.475425 v -0.478523 c 0,-0.289369 -0.239803,-0.529682 -0.529167,-0.529682 h -2.117185 c -0.289364,0 -0.529167,0.240313 -0.529167,0.529682 v 0.478523 c 0,0.19308 0.1065,0.363834 0.263552,0.456303 v 0.681614 l -2.281516,-1.317749 c -0.225639,-0.130233 -0.50455,-0.130236 -0.730186,0 l -7.392832,4.269506 c -0.297167,0.171568 -0.402042,0.558079 -0.230476,0.855245 l 0.299204,0.519865 c 0.162325,0.281138 0.518586,0.387762 0.80822,0.253214 v 5.370732 c -0.08311,0.01074 -0.165036,0.02996 -0.243911,0.05736 -0.328565,0.114118 -0.613691,0.4031 -0.681612,0.796334 -0.336529,0.171607 -0.537292,0.505336 -0.552939,0.836641 -0.01122,0.237401 0.06072,0.479598 0.224792,0.668176 0.113313,0.130244 0.272283,0.228528 0.458888,0.276986 v 0.826306 h -0.263551 c -0.146934,-5.82e-4 -0.266189,0.118684 -0.265615,0.265617 5.29e-4,0.146126 0.119491,0.264121 0.265615,0.26355 h 15.878617 c 0.146328,8.47e-4 0.265565,-0.117221 0.266134,-0.26355 5.29e-4,-0.147137 -0.118999,-0.26648 -0.266134,-0.265617 h -0.263549 v -0.826306 c 0.186791,-0.04842 0.345485,-0.146642 0.458888,-0.276986 0.164066,-0.188578 0.236004,-0.430775 0.22479,-0.668176 -0.01564,-0.331305 -0.215892,-0.665034 -0.55242,-0.836641 -0.06792,-0.393242 -0.353561,-0.681698 -0.682128,-0.796076 -0.292074,-0.101702 -0.624665,-0.09069 -0.912606,0.04677 z m -1.182873,-11.671639 v 0.478523 h -2.117185 v -0.478523 z m -5.029152,0.730705 c 0.03512,0 0.06996,0.0088 0.101287,0.02687 2.689051,1.553491 4.70044,2.713236 7.392829,4.267441 0.04948,0.02857 0.06371,0.08538 0.03514,0.134875 l -0.298691,0.517798 c -0.02858,0.0495 -0.08331,0.06372 -0.132807,0.03514 l -6.96495,-4.019393 c -0.08213,-0.04766 -0.183491,-0.04766 -0.265618,0 l -6.96495,4.019393 c -0.04949,0.02857 -0.104235,0.01435 -0.132808,-0.03514 l -0.29869,-0.517798 c -0.02858,-0.04949 -0.01434,-0.106303 0.03514,-0.134875 l 7.392313,-4.267441 c 0.03133,-0.0181 0.06669,-0.02687 0.101802,-0.02687 z m 3.175518,0.276985 h 1.554943 v 1.812292 l -1.554943,-0.898136 z m -3.175518,1.853118 c -0.04664,-2.7e-5 -0.09245,0.01228 -0.132808,0.03566 l -1.818495,1.050581 c -0.126722,0.07277 -0.170449,0.234501 -0.09767,0.361218 0.07331,0.126161 0.234908,0.169162 0.36122,0.09612 l 1.687751,-0.973068 1.687237,0.973068 c 0.126312,0.07304 0.287912,0.03004 0.361217,-0.09612 0.07278,-0.126717 0.02905,-0.288444 -0.09767,-0.361218 l -1.817976,-1.050581 c -0.04035,-0.02339 -0.08617,-0.03568 -0.13281,-0.03566 z m 0,1.3224 c -0.727692,-2e-6 -1.324465,0.596768 -1.324465,1.324466 0,0.727692 0.59677,1.3224 1.324465,1.3224 0.727696,0 1.323951,-0.594708 1.323951,-1.3224 0,-0.727698 -0.596257,-1.324466 -1.323951,-1.324466 z m -0.02066,0.529683 c 0.0069,-1.71e-4 0.01376,0 0.02066,0 0.441714,0 0.794784,0.353064 0.794784,0.794783 0,0.441708 -0.353073,0.793234 -0.794784,0.793234 -0.441709,0 -0.795298,-0.351526 -0.795298,-0.793234 0,-0.434817 0.342603,-0.783981 0.774628,-0.794783 z m -5.538164,1.58595 c -0.146124,5.82e-4 -0.26412,0.119491 -0.263548,0.265617 5.29e-4,0.145318 0.118229,0.262982 0.263548,0.263549 h 2.64635 c 0.146126,5.83e-4 0.265049,-0.117423 0.265618,-0.263549 5.29e-4,-0.146934 -0.118685,-0.266193 -0.265618,-0.265617 z m 8.465117,0 c -0.146328,2.91e-4 -0.264639,0.119289 -0.264068,0.265617 5.3e-4,0.14552 0.118547,0.263267 0.264068,0.263549 h 2.646349 c 0.146127,5.83e-4 0.265049,-0.117423 0.265618,-0.263549 5.29e-4,-0.146934 -0.118684,-0.266193 -0.265618,-0.265617 z m -8.728665,1.058333 c -0.146127,-5.82e-4 -0.265049,0.117424 -0.265618,0.26355 -2.36e-4,0.121041 0.0817,0.226808 0.198953,0.256832 v 2.39882 c -0.117258,0.03002 -0.199189,0.135791 -0.198953,0.256832 5.29e-4,0.146126 0.119491,0.264122 0.265618,0.26355 h 3.175516 c 0.14552,-2.91e-4 0.263498,-0.11803 0.264067,-0.26355 5.29e-4,-0.120595 -0.08076,-0.226214 -0.197406,-0.256832 v -2.39882 c 0.116645,-0.03062 0.197824,-0.136238 0.197406,-0.256832 -5.29e-4,-0.145521 -0.118547,-0.263267 -0.264067,-0.26355 z m 8.464597,0 c -0.146124,-5.82e-4 -0.265046,0.117425 -0.265615,0.26355 -1.77e-4,0.12119 0.08201,0.227007 0.19947,0.256832 v 2.39882 c -0.117462,0.02982 -0.199647,0.135642 -0.19947,0.256832 5.29e-4,0.146125 0.119491,0.264121 0.265615,0.26355 h 3.176035 c 0.14532,-5.56e-4 0.262983,-0.118232 0.263549,-0.26355 5.29e-4,-0.120594 -0.08076,-0.226213 -0.197403,-0.256832 7.4e-5,-0.800339 0,-1.598729 0,-2.398821 0.116641,-0.03062 0.197821,-0.136238 0.197403,-0.256832 -5.29e-4,-0.145318 -0.118229,-0.262982 -0.263549,-0.263549 z m -8.001577,0.529167 h 0.859378 v 0.926042 h -0.859378 z m 1.388544,0 h 0.861447 v 0.926042 h -0.861447 z m 7.076054,0 h 0.85938 v 0.926042 h -0.85938 z m 1.388547,0 h 0.861446 v 0.926042 h -0.861446 z m -3.169833,0.0062 v 6.078182 h -2.648416 v -6.078182 z m -6.683312,1.449007 h 0.859378 v 0.926042 h -0.859378 z m 1.388544,0 h 0.861447 v 0.926042 h -0.861447 z m 7.076054,0 h 0.85938 v 0.926042 h -0.85938 z m 1.388547,0 h 0.861446 v 0.926042 h -0.861446 z m -3.699,1.982308 c -0.146933,-5.82e-4 -0.266192,0.118683 -0.265617,0.265617 v 0.264066 c -5.3e-4,0.146935 0.118684,0.266193 0.265617,0.265617 0.146127,-5.82e-4 0.264121,-0.119491 0.263549,-0.265617 v -0.264066 c 5.29e-4,-0.146126 -0.117425,-0.265047 -0.263549,-0.265617 z m -5.951058,1.049032 c -5.3e-4,0.146934 0.118684,0.266192 0.265618,0.265616 0.146124,-5.82e-4 0.26412,-0.119491 0.263548,-0.265616 0,-0.07874 -0.0077,-0.153759 -0.02223,-0.224793 0.153101,-0.06967 0.336878,-0.07807 0.488858,-0.02532 0.112559,0.03907 0.205504,0.09825 0.265102,0.191203 -0.112231,0.03364 -0.188976,0.137084 -0.188619,0.254248 5.29e-4,0.145319 0.118229,0.262983 0.263549,0.26355 0.399915,0 0.524653,0.224298 0.535368,0.451135 0.0054,0.113418 -0.03128,0.220537 -0.09612,0.295073 -0.06485,0.07454 -0.154498,0.128674 -0.324011,0.128674 -0.146328,-5.82e-4 -0.265332,0.117738 -0.265618,0.264067 v 1.058333 h -3.176032 v -0.792716 h 2.382801 c 0.146327,-2.91e-4 0.264636,-0.119291 0.264064,-0.265617 -2.64e-4,-0.145722 -0.118342,-0.263781 -0.264064,-0.264067 h -2.646352 c -0.169514,0 -0.261231,-0.05414 -0.326078,-0.128674 -0.06485,-0.07454 -0.100963,-0.181655 -0.0956,-0.295073 0.01072,-0.226837 0.134935,-0.451135 0.534853,-0.451135 0.146124,5.82e-4 0.265046,-0.117425 0.265615,-0.26355 5.29e-4,-0.116406 -0.07532,-0.219401 -0.186553,-0.253731 0.05991,-0.09094 0.152477,-0.149997 0.266653,-0.189653 0.15503,-0.05385 0.342741,-0.04629 0.497644,0.02067 -0.0159,0.07477 -0.02479,0.153894 -0.02479,0.237195 5.3e-4,0.145319 0.11823,0.262983 0.263549,0.26355 0.14532,-5.56e-4 0.262983,-0.118231 0.263549,-0.26355 0,-0.376797 0.215281,-0.478525 0.398942,-0.478525 0.190265,-5.8e-4 0.396351,0.09686 0.396351,0.468705 z m 9.126598,1.597835 c -2.64e-4,-0.146327 -0.11929,-0.264637 -0.265615,-0.264066 -0.169516,0 -0.259165,-0.05414 -0.324011,-0.128675 -0.06485,-0.07454 -0.100963,-0.181654 -0.0956,-0.295072 0.01071,-0.226837 0.134935,-0.451135 0.53485,-0.451135 0.14552,-2.92e-4 0.263498,-0.11803 0.264067,-0.26355 2.65e-4,-0.117164 -0.07639,-0.22061 -0.188619,-0.254248 0.0596,-0.09294 0.152032,-0.152138 0.264584,-0.191203 0.152013,-0.05276 0.336253,-0.04439 0.489376,0.02532 -0.01453,0.07104 -0.02273,0.146045 -0.02273,0.224793 -5.29e-4,0.146327 0.117739,0.265332 0.264067,0.265617 0.146934,5.82e-4 0.266192,-0.118683 0.265618,-0.265617 0,-0.360216 0.184833,-0.463182 0.387038,-0.468705 0.208772,6.09e-4 0.407707,0.101728 0.407707,0.478524 5.29e-4,0.14532 0.118232,0.262984 0.263551,0.26355 0.146125,5.82e-4 0.265047,-0.117425 0.265616,-0.26355 0,-0.08367 -0.101555,-0.238228 -0.02453,-0.238228 0.154757,-0.06612 0.341,-0.07324 0.495326,-0.01964 0.11443,0.03974 0.207272,0.09888 0.267166,0.19017 -0.111252,0.03409 -0.187174,0.136858 -0.187068,0.253214 5.29e-4,0.146126 0.119491,0.264122 0.265617,0.26355 0.399915,0 0.524653,0.224298 0.535369,0.451135 0.0054,0.113418 -0.03128,0.220537 -0.09612,0.295073 -0.06485,0.07454 -0.156564,0.128674 -0.32608,0.128674 h -2.64635 c -0.145521,5.82e-4 -0.263265,0.118546 -0.263549,0.264066 -5.29e-4,0.146126 0.117423,0.265047 0.263549,0.265618 h 2.382801 v 0.792716 h -3.176035 z m -2.380705,0.529166 c 0.148143,0 0.263549,0.115415 0.263549,0.26355 v 0.265617 h -3.706749 v -0.265617 c 0,-0.148135 0.115406,-0.26355 0.263549,-0.26355 z"
           sodipodi:nodetypes="cscscsscccscsssscscccsscscsccccccccccccccsssssscccccccccscsscccsccscccsscccccccccccccccccccccsccccccscccccccccssssscscsssccccsccccccscccccccccccccccccccccccccccccccccccccccccccccccccccccccccccccccccccccscccssccccsssccsccccsccccccccssscccsccccscscccscsccccssccccccccssccccccccccsscsccssc" />
      </g>
    </g>
  </g>
</svg>
